<svg xmlns="http://www.w3.org/2000/svg" width="60" height="60"><defs><style>.a{fill:#e92729}</style></defs><circle class="a" cx="7.2" cy="7.2" r="7.2" transform="translate(22.8 22.8)"/><path class="a" d="M46.838 17.261a7.146 7.146 0 0 0-4.1-4.1 11.982 11.982 0 0 0-4.011-.743c-2.277-.1-2.961-.126-8.728-.126s-6.451.022-8.728.126a11.982 11.982 0 0 0-4.011.743 7.146 7.146 0 0 0-4.1 4.1 11.94 11.94 0 0 0-.744 4.011c-.1 2.277-.126 2.961-.126 8.728s.022 6.451.126 8.728a11.94 11.94 0 0 0 .744 4.011 7.146 7.146 0 0 0 4.1 4.1 11.982 11.982 0 0 0 4.011.743c2.277.1 2.96.126 8.728.126s6.451-.022 8.728-.126a11.982 11.982 0 0 0 4.011-.743 7.146 7.146 0 0 0 4.1-4.1 11.94 11.94 0 0 0 .744-4.011c.1-2.277.126-2.961.126-8.728s-.022-6.451-.126-8.728a11.94 11.94 0 0 0-.744-4.011zM30 41.092A11.092 11.092 0 1 1 41.092 30 11.092 11.092 0 0 1 30 41.092zm11.53-20.03a2.592 2.592 0 1 1 2.592-2.592 2.593 2.593 0 0 1-2.592 2.592z"/><path class="a" d="M0 0v60h60V0zm51.47 38.906a15.855 15.855 0 0 1-1 5.243 11.038 11.038 0 0 1-6.317 6.317 15.849 15.849 0 0 1-5.243 1c-2.3.1-3.04.13-8.906.13s-6.6-.025-8.906-.13a15.849 15.849 0 0 1-5.243-1 11.038 11.038 0 0 1-6.317-6.317 15.855 15.855 0 0 1-1-5.243c-.105-2.3-.13-3.04-.13-8.906s.025-6.6.13-8.906a15.855 15.855 0 0 1 1-5.243 11.038 11.038 0 0 1 6.317-6.317 15.849 15.849 0 0 1 5.243-1c2.3-.1 3.04-.13 8.906-.13s6.6.025 8.906.13a15.849 15.849 0 0 1 5.243 1 11.038 11.038 0 0 1 6.317 6.317 15.855 15.855 0 0 1 1 5.243c.105 2.3.13 3.04.13 8.906s-.025 6.6-.13 8.906z"/></svg>