<svg xmlns="http://www.w3.org/2000/svg" width="60" height="60"><defs><style>.a{fill:#e92729}</style></defs><path class="a" d="M25.459 36.6l11.6-6.6-11.6-6.6z"/><path class="a" d="M0 0v60h60V0zm51.272 40.756a5.577 5.577 0 0 1-3.925 3.951c-3.463.934-17.347.934-17.347.934s-13.884 0-17.347-.934a5.578 5.578 0 0 1-3.925-3.951C7.8 37.271 7.8 30 7.8 30s0-7.271.928-10.756a5.578 5.578 0 0 1 3.925-3.951C16.116 14.359 30 14.359 30 14.359s13.884 0 17.347.934a5.577 5.577 0 0 1 3.925 3.951C52.2 22.729 52.2 30 52.2 30s0 7.271-.928 10.756z"/></svg>