<svg xmlns="http://www.w3.org/2000/svg" width="60" height="60"><defs><style>.a{fill:#e92729}</style></defs><path class="a" d="M0 0v60h60V0zm47.669 23.368q.022.507.023 1.019c0 10.411-7.925 22.417-22.415 22.417A22.291 22.291 0 0 1 13.2 43.263 15.892 15.892 0 0 0 24.863 40a7.887 7.887 0 0 1-7.36-5.471 7.871 7.871 0 0 0 3.558-.135 7.884 7.884 0 0 1-6.319-7.725v-.1a7.839 7.839 0 0 0 3.569.985 7.886 7.886 0 0 1-2.438-10.518 22.365 22.365 0 0 0 16.238 8.231 7.883 7.883 0 0 1 13.425-7.185 15.774 15.774 0 0 0 5-1.912 7.9 7.9 0 0 1-3.464 4.359 15.772 15.772 0 0 0 4.525-1.241 16 16 0 0 1-3.928 4.08z"/></svg>