<svg xmlns="http://www.w3.org/2000/svg" width="60" height="60"><defs><style>.a{fill:#e92729}</style></defs><path class="a" d="M0 0v60h18.881c-1.019-9.675 2.327-17.108 3.92-24.974-2.828-4.762.34-14.345 6.307-11.983 7.341 2.9-6.358 17.7 2.838 19.552 9.6 1.929 13.522-16.66 7.568-22.706-8.6-8.729-25.041-.2-23.02 12.3.492 3.056 3.648 3.982 1.261 8.2-5.506-1.221-7.149-5.562-6.937-11.353.34-9.475 8.514-16.111 16.713-17.028 10.368-1.161 20.1 3.806 21.443 13.56 1.514 11.008-4.679 22.931-15.767 22.074-3.005-.234-4.267-1.722-6.622-3.154-1.158 6.07-2.552 11.909-6.176 15.514H60v-60z"/></svg>